<svg width="135" height="32" viewBox="0 0 135 32" fill="none" xmlns="http://www.w3.org/2000/svg">
<path d="M15.997 31.9939C24.8318 31.9939 31.9939 24.8318 31.9939 15.997C31.9939 7.16208 24.8318 0 15.997 0C7.16208 0 0 7.16208 0 15.997C0 24.8318 7.16208 31.9939 15.997 31.9939Z" fill="url(#paint0_linear_2_1253)"/>
<path fill-rule="evenodd" clip-rule="evenodd" d="M22.3315 9.55844H20.5504V10.5779C20.4022 10.6051 20.2549 10.6389 20.1087 10.6793C19.6622 10.8028 19.2632 10.9928 18.9118 11.2493C18.5698 11.4962 18.2896 11.8097 18.0711 12.1897C17.8621 12.5696 17.7576 13.0208 17.7576 13.5433C17.7576 14.1417 17.8764 14.6214 18.1139 14.9824C18.3513 15.3339 18.6458 15.6188 18.9973 15.8373C19.3487 16.0463 19.7335 16.2125 20.1514 16.336C20.5694 16.4595 20.9541 16.5925 21.3055 16.735C21.657 16.868 21.9515 17.0342 22.189 17.2337C22.4264 17.4332 22.5452 17.7181 22.5452 18.0886C22.5452 18.3166 22.4929 18.5208 22.3884 18.7013C22.284 18.8723 22.1462 19.0148 21.9752 19.1287C21.8042 19.2427 21.6143 19.3282 21.4053 19.3852C21.1963 19.4422 20.9873 19.4707 20.7783 19.4707C20.3794 19.4707 19.9994 19.3805 19.6385 19.2C19.287 19.01 19.002 18.7488 18.7835 18.4163L17.4299 19.7272C17.8479 20.2211 18.3466 20.5726 18.926 20.7816C19.4482 20.9699 19.9897 21.0734 20.5504 21.092V22.026H22.3315V20.8386H22.3225C22.6959 20.708 23.0266 20.5275 23.3146 20.2971C23.6566 20.0312 23.9273 19.6987 24.1268 19.2997C24.3263 18.8913 24.426 18.4163 24.426 17.8749C24.426 17.2764 24.3073 16.7967 24.0698 16.4358C23.8323 16.0748 23.5378 15.7851 23.1864 15.5666C22.8349 15.3481 22.4502 15.1771 22.0322 15.0536C21.6143 14.9302 21.2296 14.8019 20.8781 14.6689C20.5266 14.5359 20.2322 14.3792 19.9947 14.1987C19.7572 14.0182 19.6385 13.757 19.6385 13.4151C19.6385 13.1871 19.686 12.9923 19.7809 12.8309C19.8759 12.6599 19.9994 12.5221 20.1514 12.4177C20.3129 12.3132 20.4886 12.2372 20.6786 12.1897C20.8781 12.1422 21.0823 12.1184 21.2913 12.1184C21.6428 12.1184 21.9752 12.1849 22.2887 12.3179C22.6117 12.4414 22.8681 12.6409 23.0581 12.9164L24.369 11.5342C23.97 11.1638 23.5188 10.8978 23.0154 10.7363C22.7913 10.6631 22.5634 10.6064 22.3315 10.5664V9.55844ZM7.44476 20.8386V16.953L13.4844 10.8068L13.4646 10.7873L13.5004 10.7506H15.9227L11.2064 15.4099L16.2362 20.8386H13.7142L9.33983 15.8801H9.24009V20.8386H7.44476ZM9.24009 10.7506V12.5849L7.44476 14.4119V10.7506H9.24009Z" fill="white"/>
<path d="M45.5038 14.92H46.2598C46.5638 14.92 46.8158 14.88 47.0158 14.8C47.2158 14.712 47.3878 14.576 47.5318 14.392L52.3198 8.332C52.5198 8.076 52.7278 7.9 52.9438 7.804C53.1678 7.7 53.4478 7.648 53.7838 7.648H56.5678L50.7238 14.86C50.3798 15.3 50.0238 15.612 49.6558 15.796C49.9198 15.892 50.1558 16.028 50.3638 16.204C50.5798 16.372 50.7838 16.596 50.9758 16.876L56.9998 25H54.1558C53.7718 25 53.4838 24.948 53.2917 24.844C53.1077 24.732 52.9518 24.572 52.8238 24.364L47.9158 17.956C47.7638 17.74 47.5878 17.588 47.3878 17.5C47.1878 17.412 46.8998 17.368 46.5238 17.368H45.5038V25H42.2758V7.648H45.5038V14.92ZM64.718 19.744C63.862 19.784 63.142 19.86 62.558 19.972C61.974 20.076 61.506 20.212 61.154 20.38C60.802 20.548 60.55 20.744 60.398 20.968C60.246 21.192 60.17 21.436 60.17 21.7C60.17 22.22 60.322 22.592 60.626 22.816C60.938 23.04 61.342 23.152 61.838 23.152C62.446 23.152 62.97 23.044 63.41 22.828C63.858 22.604 64.294 22.268 64.718 21.82V19.744ZM57.926 14.404C59.342 13.108 61.046 12.46 63.038 12.46C63.758 12.46 64.402 12.58 64.97 12.82C65.538 13.052 66.018 13.38 66.41 13.804C66.802 14.22 67.098 14.72 67.298 15.304C67.506 15.888 67.61 16.528 67.61 17.224V25H66.266C65.986 25 65.77 24.96 65.618 24.88C65.466 24.792 65.346 24.62 65.258 24.364L64.994 23.476C64.682 23.756 64.378 24.004 64.082 24.22C63.786 24.428 63.478 24.604 63.158 24.748C62.838 24.892 62.494 25 62.126 25.072C61.766 25.152 61.366 25.192 60.926 25.192C60.406 25.192 59.926 25.124 59.486 24.988C59.046 24.844 58.666 24.632 58.346 24.352C58.026 24.072 57.778 23.724 57.602 23.308C57.426 22.892 57.338 22.408 57.338 21.856C57.338 21.544 57.39 21.236 57.494 20.932C57.598 20.62 57.766 20.324 57.998 20.044C58.238 19.764 58.546 19.5 58.922 19.252C59.298 19.004 59.758 18.788 60.302 18.604C60.854 18.42 61.494 18.272 62.222 18.16C62.95 18.04 63.782 17.968 64.718 17.944V17.224C64.718 16.4 64.542 15.792 64.19 15.4C63.838 15 63.33 14.8 62.666 14.8C62.186 14.8 61.786 14.856 61.466 14.968C61.154 15.08 60.878 15.208 60.638 15.352C60.398 15.488 60.178 15.612 59.978 15.724C59.786 15.836 59.57 15.892 59.33 15.892C59.122 15.892 58.946 15.84 58.802 15.736C58.658 15.624 58.542 15.496 58.454 15.352L57.926 14.404ZM73.3655 21.808C73.7015 22.216 74.0655 22.504 74.4575 22.672C74.8575 22.84 75.2775 22.924 75.7175 22.924C76.1735 22.924 76.5815 22.844 76.9415 22.684C77.3095 22.516 77.6215 22.26 77.8775 21.916C78.1335 21.564 78.3295 21.12 78.4655 20.584C78.6015 20.04 78.6695 19.392 78.6695 18.64C78.6695 17.288 78.4455 16.312 77.9975 15.712C77.5495 15.104 76.9055 14.8 76.0655 14.8C75.4975 14.8 75.0015 14.932 74.5775 15.196C74.1535 15.452 73.7495 15.816 73.3655 16.288V21.808ZM73.3655 14.2C73.8615 13.68 74.4095 13.268 75.0095 12.964C75.6175 12.652 76.3095 12.496 77.0855 12.496C77.7975 12.496 78.4375 12.636 79.0055 12.916C79.5815 13.196 80.0695 13.6 80.4695 14.128C80.8775 14.648 81.1895 15.28 81.4055 16.024C81.6215 16.768 81.7295 17.604 81.7295 18.532C81.7295 19.532 81.6055 20.44 81.3575 21.256C81.1095 22.072 80.7535 22.772 80.2895 23.356C79.8335 23.932 79.2815 24.38 78.6335 24.7C77.9855 25.02 77.2655 25.18 76.4735 25.18C76.0895 25.18 75.7415 25.14 75.4295 25.06C75.1175 24.988 74.8295 24.884 74.5655 24.748C74.3015 24.612 74.0575 24.448 73.8335 24.256C73.6175 24.056 73.4095 23.836 73.2095 23.596L73.0775 24.424C73.0295 24.632 72.9455 24.78 72.8255 24.868C72.7135 24.956 72.5575 25 72.3575 25H70.4015V7.168H73.3655V14.2ZM96.3558 20.908C96.5318 20.908 96.6878 20.976 96.8238 21.112L98.0958 22.492C97.3918 23.364 96.5238 24.032 95.4918 24.496C94.4678 24.96 93.2358 25.192 91.7958 25.192C90.5078 25.192 89.3478 24.972 88.3158 24.532C87.2918 24.092 86.4158 23.48 85.6878 22.696C84.9598 21.912 84.3998 20.976 84.0078 19.888C83.6238 18.8 83.4318 17.612 83.4318 16.324C83.4318 15.02 83.6398 13.828 84.0558 12.748C84.4718 11.66 85.0558 10.724 85.8078 9.94C86.5678 9.156 87.4718 8.548 88.5198 8.116C89.5678 7.676 90.7278 7.456 91.9998 7.456C93.2638 7.456 94.3838 7.664 95.3598 8.08C96.3438 8.496 97.1798 9.04 97.8678 9.712L96.7878 11.212C96.7238 11.308 96.6398 11.392 96.5358 11.464C96.4398 11.536 96.3038 11.572 96.1278 11.572C96.0078 11.572 95.8838 11.54 95.7558 11.476C95.6278 11.404 95.4878 11.32 95.3358 11.224C95.1838 11.12 95.0078 11.008 94.8078 10.888C94.6078 10.768 94.3758 10.66 94.1118 10.564C93.8478 10.46 93.5398 10.376 93.1878 10.312C92.8438 10.24 92.4438 10.204 91.9878 10.204C91.2118 10.204 90.4998 10.344 89.8518 10.624C89.2118 10.896 88.6598 11.296 88.1958 11.824C87.7318 12.344 87.3718 12.984 87.1158 13.744C86.8598 14.496 86.7318 15.356 86.7318 16.324C86.7318 17.3 86.8678 18.168 87.1398 18.928C87.4198 19.688 87.7958 20.328 88.2678 20.848C88.7398 21.368 89.2958 21.768 89.9358 22.048C90.5758 22.32 91.2638 22.456 91.9998 22.456C92.4398 22.456 92.8358 22.432 93.1878 22.384C93.5478 22.336 93.8758 22.26 94.1718 22.156C94.4758 22.052 94.7598 21.92 95.0238 21.76C95.2958 21.592 95.5638 21.388 95.8278 21.148C95.9078 21.076 95.9918 21.02 96.0798 20.98C96.1678 20.932 96.2598 20.908 96.3558 20.908ZM106.343 19.744C105.487 19.784 104.767 19.86 104.183 19.972C103.599 20.076 103.131 20.212 102.779 20.38C102.427 20.548 102.175 20.744 102.023 20.968C101.871 21.192 101.795 21.436 101.795 21.7C101.795 22.22 101.947 22.592 102.251 22.816C102.563 23.04 102.967 23.152 103.463 23.152C104.071 23.152 104.595 23.044 105.035 22.828C105.483 22.604 105.919 22.268 106.343 21.82V19.744ZM99.551 14.404C100.967 13.108 102.671 12.46 104.663 12.46C105.383 12.46 106.027 12.58 106.595 12.82C107.163 13.052 107.643 13.38 108.035 13.804C108.427 14.22 108.723 14.72 108.923 15.304C109.131 15.888 109.235 16.528 109.235 17.224V25H107.891C107.611 25 107.395 24.96 107.243 24.88C107.091 24.792 106.971 24.62 106.883 24.364L106.619 23.476C106.307 23.756 106.003 24.004 105.707 24.22C105.411 24.428 105.103 24.604 104.783 24.748C104.463 24.892 104.119 25 103.751 25.072C103.391 25.152 102.991 25.192 102.551 25.192C102.031 25.192 101.551 25.124 101.111 24.988C100.671 24.844 100.291 24.632 99.971 24.352C99.651 24.072 99.403 23.724 99.227 23.308C99.051 22.892 98.963 22.408 98.963 21.856C98.963 21.544 99.015 21.236 99.119 20.932C99.223 20.62 99.391 20.324 99.623 20.044C99.863 19.764 100.171 19.5 100.547 19.252C100.923 19.004 101.383 18.788 101.927 18.604C102.479 18.42 103.119 18.272 103.847 18.16C104.575 18.04 105.407 17.968 106.343 17.944V17.224C106.343 16.4 106.167 15.792 105.815 15.4C105.463 15 104.955 14.8 104.291 14.8C103.811 14.8 103.411 14.856 103.091 14.968C102.779 15.08 102.503 15.208 102.263 15.352C102.023 15.488 101.803 15.612 101.603 15.724C101.411 15.836 101.195 15.892 100.955 15.892C100.747 15.892 100.571 15.84 100.427 15.736C100.283 15.624 100.167 15.496 100.079 15.352L99.551 14.404ZM119.539 15.088C119.459 15.216 119.375 15.308 119.287 15.364C119.199 15.412 119.087 15.436 118.951 15.436C118.807 15.436 118.651 15.396 118.483 15.316C118.323 15.236 118.135 15.148 117.919 15.052C117.703 14.948 117.455 14.856 117.174 14.776C116.903 14.696 116.579 14.656 116.203 14.656C115.619 14.656 115.159 14.78 114.823 15.028C114.495 15.276 114.331 15.6 114.331 16C114.331 16.264 114.415 16.488 114.583 16.672C114.759 16.848 114.987 17.004 115.267 17.14C115.555 17.276 115.879 17.4 116.239 17.512C116.599 17.616 116.963 17.732 117.331 17.86C117.707 17.988 118.075 18.136 118.435 18.304C118.795 18.464 119.115 18.672 119.395 18.928C119.683 19.176 119.911 19.476 120.079 19.828C120.255 20.18 120.343 20.604 120.343 21.1C120.343 21.692 120.235 22.24 120.019 22.744C119.811 23.24 119.499 23.672 119.083 24.04C118.667 24.4 118.151 24.684 117.535 24.892C116.927 25.092 116.223 25.192 115.423 25.192C114.999 25.192 114.583 25.152 114.175 25.072C113.775 25 113.387 24.896 113.011 24.76C112.643 24.624 112.299 24.464 111.979 24.28C111.667 24.096 111.391 23.896 111.151 23.68L111.835 22.552C111.923 22.416 112.027 22.312 112.146 22.24C112.266 22.168 112.419 22.132 112.603 22.132C112.787 22.132 112.959 22.184 113.119 22.288C113.287 22.392 113.479 22.504 113.695 22.624C113.911 22.744 114.163 22.856 114.451 22.96C114.747 23.064 115.119 23.116 115.567 23.116C115.919 23.116 116.219 23.076 116.467 22.996C116.723 22.908 116.931 22.796 117.091 22.66C117.259 22.524 117.378 22.368 117.451 22.192C117.531 22.008 117.571 21.82 117.571 21.628C117.571 21.34 117.483 21.104 117.307 20.92C117.139 20.736 116.911 20.576 116.622 20.44C116.343 20.304 116.019 20.184 115.651 20.08C115.291 19.968 114.919 19.848 114.535 19.72C114.159 19.592 113.787 19.444 113.419 19.276C113.059 19.1 112.735 18.88 112.447 18.616C112.167 18.352 111.939 18.028 111.763 17.644C111.595 17.26 111.511 16.796 111.511 16.252C111.511 15.748 111.611 15.268 111.811 14.812C112.011 14.356 112.303 13.96 112.687 13.624C113.079 13.28 113.563 13.008 114.139 12.808C114.723 12.6 115.395 12.496 116.155 12.496C117.003 12.496 117.775 12.636 118.471 12.916C119.167 13.196 119.747 13.564 120.211 14.02L119.539 15.088ZM125.537 14.008C126.017 13.56 126.545 13.196 127.121 12.916C127.697 12.636 128.373 12.496 129.149 12.496C129.821 12.496 130.417 12.612 130.937 12.844C131.457 13.068 131.889 13.388 132.233 13.804C132.585 14.212 132.849 14.704 133.025 15.28C133.209 15.848 133.301 16.476 133.301 17.164V25H130.337V17.164C130.337 16.412 130.165 15.832 129.821 15.424C129.477 15.008 128.953 14.8 128.249 14.8C127.737 14.8 127.257 14.916 126.809 15.148C126.361 15.38 125.937 15.696 125.537 16.096V25H122.573V7.168H125.537V14.008Z" fill="#4A4A4A"/>
<defs>
<linearGradient id="paint0_linear_2_1253" x1="-1.95636e-07" y1="16.2592" x2="31.9939" y2="16.2592" gradientUnits="userSpaceOnUse">
<stop stop-color="#41BFBD"/>
<stop offset="1" stop-color="#3DE883"/>
</linearGradient>
</defs>
</svg>
