<?xml version="1.0" encoding="utf-8"?>
<svg width="845px" height="216px" viewBox="0 0 845 216" version="1.1" xmlns:xlink="http://www.w3.org/1999/xlink" xmlns="http://www.w3.org/2000/svg">
  <desc>Created with Lunacy</desc>
  <defs>
    <path d="M0 0L845 0L845 215.9L0 215.9L0 0Z" transform="translate(0 -2)" id="path_1" />
    <rect width="845" height="216" id="artboard_1" />
    <clipPath id="clip_1">
      <use xlink:href="#artboard_1" clip-rule="evenodd" />
    </clipPath>
    <clipPath id="mask_1">
      <use xlink:href="#path_1" />
    </clipPath>
  </defs>
  <g id="javalin-logo-landscape-light" clip-path="url(#clip_1)">
    <path d="M0 0L845 0L845 215.9L0 215.9L0 0Z" transform="translate(0 -2)" id="Background" fill="none" stroke="none" />
    <g clip-path="url(#mask_1)">
      <g id="Group" transform="translate(0 17)">
        <path d="M0 91C0 40.7421 40.7421 0 91 0C141.258 0 182 40.7421 182 91C182 141.258 141.258 182 91 182C40.7421 182 0 141.258 0 91Z" id="Ellipse-3" fill="#008CBB" stroke="none" />
        <path d="M91.0209 9.32864C78.5827 -3.10955 58.4164 -3.10955 45.9782 9.32865C33.54 21.7669 33.54 41.9332 45.9782 54.3713C58.4164 66.8095 78.5827 66.8095 91.0209 54.3713C103.459 41.9331 103.459 21.7668 91.0209 9.32864ZM106.897 46.1103C107.088 45.5941 107.354 44.7822 107.552 44.1628C107.705 43.6844 108.225 43.2177 108.718 43.1219L110.349 42.8049C110.842 42.7091 111.36 43.0209 111.505 43.5021C111.677 44.0758 111.893 44.8066 112.026 45.2838C119.654 72.7997 112.652 103.521 91.0209 125.153C67.1479 149.026 32.2036 155.08 2.71541 143.315C2.13003 143.081 1.21169 142.691 0.543846 142.405C0.0821674 142.207 -0.125768 141.673 0.0785503 141.214L0.734106 139.741C0.938431 139.283 1.5051 138.981 2.0004 139.065C2.64946 139.175 3.50635 139.315 4.05832 139.387C18.9456 141.335 34.5409 136.59 45.9781 125.153C59.1403 111.991 63.439 93.3215 58.8743 76.5622C58.774 76.1938 58.6117 75.648 58.4721 75.1868C58.3266 74.706 58.4938 74.0291 58.849 73.6739L59.8631 72.6598C60.2183 72.3046 60.9069 72.0895 61.4019 72.1751C61.9279 72.2661 62.5713 72.3734 62.9984 72.431C75.2268 74.0794 88.0571 70.2044 97.4556 60.806C101.763 56.4988 104.91 51.4708 106.897 46.1103Z" transform="translate(57.891113 23.759338)" id="Vector" fill="#006889" fill-rule="evenodd" stroke="none" />
      </g>
      <g id="javalin-wordmark-black-instance" transform="translate(197 0)">
        <g id="javalin-wordmark-instance-2">
          <g id="Group">
            <path d="M75.5342 16.2075C74.6338 21.51 72.6329 25.5118 69.5314 28.2131C66.43 30.9143 61.928 32.2149 56.2254 32.2149C50.3227 32.2149 46.2209 30.9143 44.1199 28.4132C42.019 25.912 41.4187 21.8101 42.4192 16.2075C43.3196 10.6049 45.4205 6.50301 48.4219 3.90181C51.4232 1.3006 55.9253 0 61.8279 0C67.7306 0 71.7324 1.40065 73.8334 4.00185C75.9343 6.70311 76.5346 10.705 75.5342 16.2075ZM38.8176 180.984C33.6152 191.589 27.5125 201.493 20.4092 210.798L0 206.296C3.00136 200.893 5.70258 195.691 8.00362 190.488C10.3047 185.286 12.4056 179.883 14.4065 174.281C16.4074 168.678 18.1082 162.575 19.7089 156.072C21.3097 149.569 22.8103 142.366 24.211 134.362L25.4115 127.359L27.8126 114.053L30.8139 97.245C31.8144 91.1422 32.8148 85.2395 33.8153 79.4368L36.4165 63.2293C37.2168 58.227 37.9172 54.2251 38.4174 51.1237L67.6306 51.1237L50.6229 147.969C47.9217 159.374 44.0199 170.279 38.8176 180.984Z" transform="translate(0 5.202357)" id="Shape" fill="#000000" fill-rule="evenodd" stroke="none" />
            <path d="M70.3132 100.947L68.6124 100.947C54.6061 111.051 40.8999 116.054 27.1937 116.054C16.689 116.054 9.18558 113.353 4.7836 107.85C0.281561 102.447 -1.01902 94.6439 0.781787 84.5392C2.78269 73.334 7.6849 64.83 15.6885 59.0273C23.6921 53.2247 35.1974 49.723 50.2041 48.6225L77.2164 46.7216L77.9167 42.9199C78.717 38.7179 78.9172 35.2163 78.717 32.5151C78.5169 29.8138 77.6165 27.6128 76.0158 25.912C74.4151 24.2112 72.1141 23.0107 68.9126 22.3103C65.7111 21.61 61.6093 21.2098 56.4069 21.2098C51.5047 21.2098 45.9022 21.61 39.5993 22.2103C33.2965 22.8106 26.8936 23.711 20.3906 25.0116L22.1914 4.20195Q46.3524 0 65.1109 0C82.1185 0 94.0239 3.20148 101.027 9.30431C108.03 15.5072 110.331 25.1116 108.03 38.1177L94.5242 115.053L70.6133 115.053L70.3132 100.947ZM37.9986 69.2321C34.1968 71.7332 31.8958 75.8351 30.8953 81.4377C29.1946 90.8421 33.1964 95.5443 42.9008 95.4442C47.1027 95.4442 51.7048 94.5438 56.607 92.743C61.5092 90.9421 66.1113 88.7411 70.4132 86.0399L74.5151 62.7291L56.4069 64.4298C47.903 65.1302 41.7002 66.7309 37.9986 69.2321Z" transform="translate(69.92775 54.725357)" id="Shape" fill="#000000" fill-rule="evenodd" stroke="none" />
            <path d="M22.6102 113.453L58.7266 113.453L120.855 3.10144L121.455 0L90.9411 0L55.9253 67.6313L46.3209 90.1418L43.9199 90.1418L42.2191 67.6313L31.7143 0L0.600278 0L0 3.10144L22.6102 113.453Z" transform="translate(193.11945 56.32612)" id="Polygon" fill="#000000" stroke="none" />
            <path d="M70.3134 100.947L68.6126 100.947C54.6062 111.051 40.8 116.054 27.1938 116.054C16.689 116.054 9.18562 113.353 4.7836 107.85C0.281561 102.447 -1.01902 94.6439 0.781787 84.5392C2.78269 73.334 7.68494 64.83 15.6886 59.0273C23.6922 53.2247 35.1974 49.723 50.2042 48.6225L77.2165 46.7216L77.9168 42.9199C78.7171 38.7179 78.9172 35.2163 78.7171 32.5151C78.517 29.8138 77.6166 27.6128 76.0159 25.912C74.4152 24.2112 72.1142 23.0107 68.9127 22.3103C65.7112 21.61 61.6094 21.2098 56.407 21.2098C51.5048 21.2098 45.9023 21.61 39.5994 22.2103C33.2966 22.8106 26.8937 23.711 20.3907 25.0116L22.1915 4.20195C38.2988 1.40065 52.6053 0 65.111 0C82.1187 0 94.0241 3.20148 101.027 9.30431C108.03 15.5072 110.331 25.1116 108.03 38.1177L94.5243 115.053L70.6135 115.053L70.3134 100.947ZM37.8983 69.2321C34.0966 71.7332 31.7956 75.8351 30.7951 81.4377C29.1944 90.8421 33.1962 95.5443 42.8006 95.4442C47.0025 95.4442 51.6046 94.5438 56.5068 92.743C61.409 90.9421 66.0111 88.7411 70.313 86.0399L74.4149 62.7291L56.3067 64.4299C47.8028 65.1302 41.6 66.7309 37.8983 69.2321Z" transform="translate(308.4901 54.725357)" id="Shape" fill="#000000" fill-rule="evenodd" stroke="none" />
            <path d="M0 169.779L29.2133 169.779L59.1268 0L29.9136 0L0 169.779Z" transform="translate(423.7785 0)" id="Polygon" fill="#000000" stroke="none" />
            <path d="M57.5261 16.2075C56.6256 21.51 54.6247 25.5118 51.5234 28.2131C48.4219 30.9143 43.9199 32.2149 37.9172 32.2149C32.0145 32.2149 28.1127 30.9143 26.0118 28.4132C23.9109 25.912 23.4107 21.8101 24.4111 16.2075C25.3115 10.6049 27.3125 6.50301 30.3138 3.90181C33.3152 1.3006 37.7171 0 43.6198 0C49.5225 0 53.5243 1.40065 55.7253 4.00185C57.8262 6.70311 58.5265 10.705 57.5261 16.2075ZM29.2132 164.576L0 164.576L20.0091 51.1237L49.2223 51.1237L29.2132 164.576Z" transform="translate(474.65662 5.202357)" id="Shape" fill="#000000" fill-rule="evenodd" stroke="none" />
            <path d="M0 115.453L29.2132 115.453L43.8198 32.7151C50.6229 29.9139 57.0258 27.6128 63.1286 25.912C69.2313 24.1112 74.5337 23.3108 79.0358 23.3108C84.2382 23.3108 87.7397 24.7114 89.6406 27.4127C91.5415 30.1139 91.9416 34.7161 90.741 41.2191L77.6351 115.554L106.848 115.554L121.655 31.3145C123.456 21.1098 122.055 13.3062 117.553 8.00371C113.051 2.70125 105.848 0 96.0435 0C89.6406 0 82.4374 1.20056 74.4337 3.60167C66.4301 6.00278 56.6257 9.80454 44.9204 15.107L43.6198 15.107L44.22 2.10098L19.809 2.10098L0 115.453L0 115.453Z" transform="translate(525.63434 53.32482)" id="Shape" fill="#000000" stroke="none" />
          </g>
        </g>
      </g>
    </g>
  </g>
</svg>