<?xml version="1.0" encoding="utf-8"?>
<svg width="845px" height="216px" viewBox="0 0 845 216" version="1.1" xmlns:xlink="http://www.w3.org/1999/xlink" xmlns="http://www.w3.org/2000/svg">
  <desc>Created with Lunacy</desc>
  <defs>
    <path d="M0 0L844 0L844 215.9L0 215.9L0 0Z" id="path_1" />
    <rect width="845" height="216" id="artboard_1" />
    <clipPath id="clip_1">
      <use xlink:href="#artboard_1" clip-rule="evenodd" />
    </clipPath>
    <clipPath id="mask_1">
      <use xlink:href="#path_1" />
    </clipPath>
  </defs>
  <g id="javalin-logo-landscape-dark" clip-path="url(#clip_1)">
    <path d="M0 0L844 0L844 215.9L0 215.9L0 0Z" id="Background" fill="none" stroke="none" />
    <g clip-path="url(#mask_1)">
      <path d="M91 0C40.7421 0 0 40.7421 0 91C0 141.258 40.7421 182 91 182C141.258 182 182 141.258 182 91C182 40.7421 141.258 0 91 0ZM103.869 33.0878C116.307 20.6497 136.473 20.6497 148.911 33.0878C161.349 45.5259 161.349 65.6921 148.911 78.1302C136.473 90.5682 116.307 90.5682 103.869 78.1302C91.431 65.6921 91.4309 45.5259 103.869 33.0878ZM165.104 68.9574C164.992 69.294 164.881 69.6169 164.787 69.8692C162.8 75.2296 159.653 80.2575 155.346 84.5647C145.947 93.9631 133.117 97.838 120.889 96.1896C120.737 96.1691 120.558 96.1424 120.367 96.1124C119.394 95.9596 118.084 96.3151 117.259 96.9484C117.33 96.8543 117.406 96.7666 117.486 96.6865L116.983 97.1887C117.067 97.1049 117.16 97.0246 117.259 96.9484C116.651 97.7543 116.394 99.0231 116.663 99.9569C116.701 100.089 116.735 100.213 116.765 100.321C121.33 117.08 117.031 135.749 103.869 148.911C92.4317 160.348 76.8365 165.093 61.9494 163.145C61.662 163.107 61.2918 163.051 60.9114 162.991C59.8711 162.825 58.6859 163.44 58.2297 164.39C58.2363 164.374 58.2432 164.357 58.2504 164.341L58.2048 164.444C58.2128 164.426 58.2211 164.408 58.2297 164.39C57.9059 165.186 58.273 166.095 59.0699 166.434C59.611 166.664 60.1922 166.908 60.6065 167.073C90.0945 178.838 125.038 172.784 148.911 148.911C170.543 127.279 177.544 96.5583 169.916 69.0426C169.826 68.7181 169.697 68.2763 169.569 67.8464C169.332 67.0469 168.476 66.5274 167.657 66.6771C166.579 66.8969 165.452 67.9171 165.104 68.9574Z" transform="translate(0 17)" id="Ellipse-3-Difference-2" fill="#FFFFFF" fill-rule="evenodd" stroke="none" />
      <g id="javalin-wordmark-instance-2" transform="translate(196 0)">
        <g id="Group">
          <path d="M75.5342 16.2075C74.6338 21.51 72.6329 25.5118 69.5315 28.2131C66.4301 30.9143 61.928 32.2149 56.2254 32.2149C50.3228 32.2149 46.2209 30.9143 44.1199 28.4132C42.019 25.912 41.4187 21.8101 42.4192 16.2075C43.3196 10.6049 45.4205 6.50301 48.4219 3.90181C51.4233 1.3006 55.9253 0 61.828 0C67.7306 0 71.7325 1.40065 73.8334 4.00185C75.9344 6.70311 76.5346 10.705 75.5342 16.2075ZM38.8176 180.984C33.6152 191.589 27.5125 201.493 20.4092 210.798L0 206.296C3.00136 200.893 5.70258 195.691 8.00363 190.488C10.3047 185.286 12.4056 179.883 14.4065 174.281C16.4074 168.678 18.1082 162.575 19.7089 156.072C21.3097 149.569 22.8103 142.366 24.211 134.362L25.4115 127.359L27.8126 114.053L30.8139 97.245C31.8144 91.1422 32.8149 85.2395 33.8153 79.4368L36.4165 63.2293C37.2169 58.227 37.9172 54.2251 38.4174 51.1237L67.6306 51.1237L50.6229 147.969C47.9217 159.374 44.0199 170.279 38.8176 180.984Z" transform="translate(0 5.202357)" id="Shape" fill="#FFFFFF" fill-rule="evenodd" stroke="none" />
          <path d="M70.3132 100.947L68.6125 100.947C54.6061 111.051 40.8999 116.054 27.1937 116.054C16.689 116.054 9.18559 113.353 4.7836 107.85C0.281561 102.447 -1.01902 94.6439 0.781787 84.5392C2.78269 73.334 7.68491 64.83 15.6885 59.0273C23.6922 53.2247 35.1974 49.723 50.2042 48.6225L77.2164 46.7216L77.9167 42.9199C78.7171 38.7179 78.9172 35.2163 78.7171 32.5151C78.517 29.8138 77.6166 27.6128 76.0158 25.912C74.4151 24.2112 72.1141 23.0107 68.9126 22.3103C65.7112 21.61 61.6093 21.2098 56.407 21.2098C51.5047 21.2098 45.9022 21.61 39.5994 22.2103C33.2965 22.8106 26.8936 23.711 20.3906 25.0116L22.1914 4.20195Q46.3524 0 65.1109 0C82.1186 0 94.024 3.20148 101.027 9.30431C108.03 15.5072 110.331 25.1116 108.03 38.1177L94.5242 115.053L70.6134 115.053L70.3132 100.947ZM37.9986 69.2321C34.1968 71.7332 31.8958 75.8351 30.8953 81.4377C29.1946 90.8421 33.1964 95.5443 42.9008 95.4442C47.1027 95.4442 51.7048 94.5438 56.607 92.743C61.5092 90.9421 66.1113 88.7411 70.4132 86.0399L74.5151 62.7291L56.4069 64.4298C47.903 65.1302 41.7003 66.7309 37.9986 69.2321Z" transform="translate(69.92777 54.725357)" id="Shape" fill="#FFFFFF" fill-rule="evenodd" stroke="none" />
          <path d="M22.6102 113.453L58.7266 113.453L120.855 3.10144L121.455 0L90.9412 0L55.9253 67.6313L46.321 90.1418L43.9199 90.1418L42.2191 67.6313L31.7143 0L0.600278 0L0 3.10144L22.6102 113.453Z" transform="translate(193.1195 56.32612)" id="Polygon" fill="#FFFFFF" stroke="none" />
          <path d="M70.3134 100.947L68.6126 100.947C54.6062 111.051 40.8 116.054 27.1938 116.054C16.689 116.054 9.18562 113.353 4.7836 107.85C0.281561 102.447 -1.01902 94.6439 0.781787 84.5392C2.78269 73.334 7.68494 64.83 15.6886 59.0273C23.6922 53.2247 35.1974 49.723 50.2042 48.6225L77.2165 46.7216L77.9168 42.9199C78.7171 38.7179 78.9172 35.2163 78.7171 32.5151C78.517 29.8138 77.6166 27.6128 76.0159 25.912C74.4152 24.2112 72.1142 23.0107 68.9127 22.3103C65.7113 21.61 61.6094 21.2098 56.407 21.2098C51.5049 21.2098 45.9023 21.61 39.5994 22.2103C33.2966 22.8106 26.8937 23.711 20.3907 25.0116L22.1915 4.20195C38.2989 1.40065 52.6053 0 65.111 0C82.1187 0 94.0241 3.20148 101.027 9.30431C108.03 15.5072 110.332 25.1116 108.03 38.1177L94.5244 115.053L70.6135 115.053L70.3134 100.947ZM37.8983 69.2321C34.0966 71.7332 31.7956 75.8351 30.7951 81.4377C29.1944 90.8421 33.1962 95.5443 42.8006 95.4442C47.0025 95.4442 51.6046 94.5438 56.5068 92.743C61.409 90.9421 66.0111 88.7411 70.313 86.0399L74.4149 62.7291L56.3067 64.4299C47.8028 65.1302 41.6 66.7309 37.8983 69.2321Z" transform="translate(308.4902 54.725357)" id="Shape" fill="#FFFFFF" fill-rule="evenodd" stroke="none" />
          <path d="M0 169.779L29.2133 169.779L59.1268 0L29.9136 0L0 169.779Z" transform="translate(423.77863 0)" id="Polygon" fill="#FFFFFF" stroke="none" />
          <path d="M57.5261 16.2075C56.6257 21.51 54.6248 25.5118 51.5234 28.2131C48.4219 30.9143 43.9199 32.2149 37.9172 32.2149C32.0145 32.2149 28.1128 30.9143 26.0118 28.4132C23.9109 25.912 23.4107 21.8101 24.4111 16.2075C25.3116 10.6049 27.3125 6.50301 30.3138 3.90181C33.3152 1.3006 37.7171 0 43.6198 0C49.5225 0 53.5243 1.40065 55.7253 4.00185C57.8262 6.70311 58.5265 10.705 57.5261 16.2075ZM29.2132 164.576L0 164.576L20.0091 51.1237L49.2223 51.1237L29.2132 164.576Z" transform="translate(474.65677 5.202357)" id="Shape" fill="#FFFFFF" fill-rule="evenodd" stroke="none" />
          <path d="M0 115.453L29.2133 115.453L43.8198 32.7151C50.6229 29.9139 57.0258 27.6128 63.1286 25.912C69.2313 24.1112 74.5338 23.3108 79.0358 23.3108C84.2382 23.3108 87.7398 24.7114 89.6406 27.4127C91.5415 30.1139 91.9416 34.7161 90.7411 41.2191L77.6352 115.554L106.848 115.554L121.655 31.3145C123.456 21.1098 122.055 13.3062 117.553 8.00371C113.051 2.70125 105.848 0 96.0435 0C89.6406 0 82.4374 1.20056 74.4338 3.60167C66.4301 6.00278 56.6257 9.80454 44.9204 15.107L43.6198 15.107L44.2201 2.10098L19.809 2.10098L0 115.453L0 115.453Z" transform="translate(525.63446 53.32482)" id="Shape" fill="#FFFFFF" stroke="none" />
        </g>
      </g>
    </g>
  </g>
</svg>